<mxfile host="app.diagrams.net" modified="2024-05-16T13:05:20.811Z" agent="Mozilla/5.0 (Windows NT 10.0; Win64; x64) AppleWebKit/537.36 (KHTML, like Gecko) Chrome/124.0.0.0 Safari/537.36" etag="L2bqN9qdJ27Bkx6oWt_Y" version="24.0.2" type="device">
  <diagram name="Page-1" id="PzGOungtD1wFVOycZ3Oy">
    <mxGraphModel dx="829" dy="495" grid="1" gridSize="10" guides="1" tooltips="1" connect="1" arrows="1" fold="1" page="1" pageScale="1" pageWidth="850" pageHeight="1100" math="0" shadow="0">
      <root>
        <mxCell id="0" />
        <mxCell id="1" parent="0" />
        <mxCell id="aBfxYglm6UZEGd56dKVS-12" style="edgeStyle=orthogonalEdgeStyle;rounded=0;orthogonalLoop=1;jettySize=auto;html=1;entryX=0.5;entryY=0;entryDx=0;entryDy=0;" edge="1" parent="1" source="aBfxYglm6UZEGd56dKVS-1" target="aBfxYglm6UZEGd56dKVS-2">
          <mxGeometry relative="1" as="geometry" />
        </mxCell>
        <mxCell id="aBfxYglm6UZEGd56dKVS-1" value="Input Text File" style="shape=document;whiteSpace=wrap;html=1;boundedLbl=1;" vertex="1" parent="1">
          <mxGeometry x="10" y="220" width="120" height="80" as="geometry" />
        </mxCell>
        <mxCell id="aBfxYglm6UZEGd56dKVS-11" style="edgeStyle=orthogonalEdgeStyle;rounded=0;orthogonalLoop=1;jettySize=auto;html=1;exitX=1;exitY=0.5;exitDx=0;exitDy=0;entryX=0;entryY=0.5;entryDx=0;entryDy=0;" edge="1" parent="1" source="aBfxYglm6UZEGd56dKVS-2" target="aBfxYglm6UZEGd56dKVS-3">
          <mxGeometry relative="1" as="geometry" />
        </mxCell>
        <mxCell id="aBfxYglm6UZEGd56dKVS-2" value="Reed Solomon Encoder" style="rounded=0;whiteSpace=wrap;html=1;" vertex="1" parent="1">
          <mxGeometry x="10" y="370" width="120" height="60" as="geometry" />
        </mxCell>
        <mxCell id="aBfxYglm6UZEGd56dKVS-13" style="edgeStyle=orthogonalEdgeStyle;rounded=0;orthogonalLoop=1;jettySize=auto;html=1;entryX=0.008;entryY=0.348;entryDx=0;entryDy=0;entryPerimeter=0;" edge="1" parent="1" source="aBfxYglm6UZEGd56dKVS-3" target="aBfxYglm6UZEGd56dKVS-4">
          <mxGeometry relative="1" as="geometry">
            <mxPoint x="370" y="390" as="targetPoint" />
          </mxGeometry>
        </mxCell>
        <mxCell id="aBfxYglm6UZEGd56dKVS-3" value="PPM Encoder (cpp)" style="rounded=0;whiteSpace=wrap;html=1;" vertex="1" parent="1">
          <mxGeometry x="190" y="370" width="120" height="60" as="geometry" />
        </mxCell>
        <mxCell id="aBfxYglm6UZEGd56dKVS-4" value="" style="swimlane;startSize=0;" vertex="1" parent="1">
          <mxGeometry x="370" y="330" width="200" height="200" as="geometry" />
        </mxCell>
        <mxCell id="aBfxYglm6UZEGd56dKVS-5" value="laserCommNoise.cpp" style="rounded=0;whiteSpace=wrap;html=1;" vertex="1" parent="aBfxYglm6UZEGd56dKVS-4">
          <mxGeometry x="40" y="30" width="120" height="60" as="geometry" />
        </mxCell>
        <mxCell id="aBfxYglm6UZEGd56dKVS-6" value="Noise.cpp" style="rounded=0;whiteSpace=wrap;html=1;" vertex="1" parent="aBfxYglm6UZEGd56dKVS-4">
          <mxGeometry x="42.5" y="110" width="115" height="70" as="geometry" />
        </mxCell>
        <mxCell id="aBfxYglm6UZEGd56dKVS-16" value="" style="edgeStyle=orthogonalEdgeStyle;rounded=0;orthogonalLoop=1;jettySize=auto;html=1;" edge="1" parent="1" source="aBfxYglm6UZEGd56dKVS-7" target="aBfxYglm6UZEGd56dKVS-8">
          <mxGeometry relative="1" as="geometry" />
        </mxCell>
        <mxCell id="aBfxYglm6UZEGd56dKVS-7" value="PPM Decoder (cpp)" style="rounded=0;whiteSpace=wrap;html=1;" vertex="1" parent="1">
          <mxGeometry x="620" y="380" width="120" height="60" as="geometry" />
        </mxCell>
        <mxCell id="aBfxYglm6UZEGd56dKVS-8" value="Reed Solomon Decoder" style="rounded=0;whiteSpace=wrap;html=1;" vertex="1" parent="1">
          <mxGeometry x="780" y="380" width="120" height="60" as="geometry" />
        </mxCell>
        <mxCell id="aBfxYglm6UZEGd56dKVS-9" value="Prints Message" style="shape=callout;whiteSpace=wrap;html=1;perimeter=calloutPerimeter;" vertex="1" parent="1">
          <mxGeometry x="790" y="290" width="120" height="80" as="geometry" />
        </mxCell>
        <mxCell id="aBfxYglm6UZEGd56dKVS-14" value="" style="endArrow=classic;html=1;rounded=0;entryX=0;entryY=0.5;entryDx=0;entryDy=0;exitX=1.002;exitY=0.401;exitDx=0;exitDy=0;exitPerimeter=0;" edge="1" parent="1" source="aBfxYglm6UZEGd56dKVS-4" target="aBfxYglm6UZEGd56dKVS-7">
          <mxGeometry width="50" height="50" relative="1" as="geometry">
            <mxPoint x="430" y="340" as="sourcePoint" />
            <mxPoint x="480" y="290" as="targetPoint" />
          </mxGeometry>
        </mxCell>
        <mxCell id="aBfxYglm6UZEGd56dKVS-17" value=".txt file" style="text;html=1;align=center;verticalAlign=middle;resizable=0;points=[];autosize=1;strokeColor=none;fillColor=none;" vertex="1" parent="1">
          <mxGeometry x="560" y="378" width="60" height="30" as="geometry" />
        </mxCell>
        <mxCell id="aBfxYglm6UZEGd56dKVS-18" value=".txt file" style="text;html=1;align=center;verticalAlign=middle;resizable=0;points=[];autosize=1;strokeColor=none;fillColor=none;" vertex="1" parent="1">
          <mxGeometry x="310" y="370" width="60" height="30" as="geometry" />
        </mxCell>
        <mxCell id="aBfxYglm6UZEGd56dKVS-19" value=".txt file" style="text;html=1;align=center;verticalAlign=middle;resizable=0;points=[];autosize=1;strokeColor=none;fillColor=none;" vertex="1" parent="1">
          <mxGeometry x="130" y="370" width="60" height="30" as="geometry" />
        </mxCell>
        <mxCell id="aBfxYglm6UZEGd56dKVS-20" value=".txt file" style="text;html=1;align=center;verticalAlign=middle;resizable=0;points=[];autosize=1;strokeColor=none;fillColor=none;" vertex="1" parent="1">
          <mxGeometry x="40" y="315" width="60" height="30" as="geometry" />
        </mxCell>
        <mxCell id="aBfxYglm6UZEGd56dKVS-21" value=".txt file" style="text;html=1;align=center;verticalAlign=middle;resizable=0;points=[];autosize=1;strokeColor=none;fillColor=none;" vertex="1" parent="1">
          <mxGeometry x="730" y="385" width="60" height="30" as="geometry" />
        </mxCell>
        <mxCell id="aBfxYglm6UZEGd56dKVS-22" value="Compiled through Makefile" style="text;html=1;align=center;verticalAlign=middle;whiteSpace=wrap;rounded=0;" vertex="1" parent="1">
          <mxGeometry x="390" y="310" width="150" height="30" as="geometry" />
        </mxCell>
        <mxCell id="aBfxYglm6UZEGd56dKVS-23" value="" style="endArrow=none;html=1;rounded=0;" edge="1" parent="1">
          <mxGeometry width="50" height="50" relative="1" as="geometry">
            <mxPoint y="540" as="sourcePoint" />
            <mxPoint x="920" y="540" as="targetPoint" />
          </mxGeometry>
        </mxCell>
        <mxCell id="aBfxYglm6UZEGd56dKVS-24" value="" style="endArrow=none;html=1;rounded=0;" edge="1" parent="1">
          <mxGeometry width="50" height="50" relative="1" as="geometry">
            <mxPoint y="540" as="sourcePoint" />
            <mxPoint y="440" as="targetPoint" />
          </mxGeometry>
        </mxCell>
        <mxCell id="aBfxYglm6UZEGd56dKVS-25" value="" style="endArrow=none;html=1;rounded=0;" edge="1" parent="1">
          <mxGeometry width="50" height="50" relative="1" as="geometry">
            <mxPoint x="920" y="540" as="sourcePoint" />
            <mxPoint x="920" y="440" as="targetPoint" />
          </mxGeometry>
        </mxCell>
        <mxCell id="aBfxYglm6UZEGd56dKVS-26" value="Contained in bash script" style="text;html=1;align=center;verticalAlign=middle;whiteSpace=wrap;rounded=0;" vertex="1" parent="1">
          <mxGeometry x="370" y="550" width="190" height="30" as="geometry" />
        </mxCell>
        <mxCell id="aBfxYglm6UZEGd56dKVS-27" value="&lt;h1&gt;Bash Inputs&lt;/h1&gt;&lt;div&gt;Inputs/Output file names (between each step)&lt;/div&gt;&lt;div&gt;Noise Probability&lt;/div&gt;&lt;div&gt;Erasure Probability&lt;/div&gt;" style="text;html=1;spacing=5;spacingTop=-20;whiteSpace=wrap;overflow=hidden;rounded=0;" vertex="1" parent="1">
          <mxGeometry x="170" y="170" width="190" height="120" as="geometry" />
        </mxCell>
      </root>
    </mxGraphModel>
  </diagram>
</mxfile>
